<?xml version="1.0" encoding="UTF-8"?>
<svg id="Hexagon" xmlns="http://www.w3.org/2000/svg" viewBox="0 0 1000 1000">
  <defs>
    <style>
      .cls-1 {
        fill: #fff;
      }
    </style>
  </defs>
  <g>
    <path class="cls-1" d="m330.16,87.05c52.43-21.62,109.87-33.55,170.1-33.55,246.6,0,446.5,199.9,446.5,446.5,0,143.99-68.16,272.05-173.97,353.7l14.37,24.89c114.29-86.74,188.1-224.04,188.1-378.59,0-262.34-212.66-475-475-475-65.42,0-127.75,13.23-184.47,37.15l14.37,24.9Z"/>
    <path class="cls-1" d="m669.96,913.11c-52.32,21.52-109.63,33.39-169.71,33.39-246.6,0-446.5-199.9-446.5-446.5,0-143.84,68.02-271.78,173.64-353.44l-14.37-24.89C98.92,208.42,25.25,345.6,25.25,500c0,262.34,212.66,475,475,475,65.27,0,127.47-13.17,184.08-36.99l-14.37-24.9Z"/>
  </g>
  <path class="cls-1" d="m500.01,96.25c-222.98,0-403.75,180.77-403.75,403.75s180.77,403.75,403.75,403.75,403.75-180.77,403.75-403.75S723,96.25,500.01,96.25Zm0,760.26l-308.75-178.26v-356.51l308.75-178.26,308.75,178.26v356.51l-308.75,178.26Z"/>
  <polygon class="cls-1" points="737.51 637.12 737.51 362.88 500.01 225.76 262.51 362.88 262.51 637.12 500.01 774.24 737.51 637.12"/>
</svg>